<svg width="23" height="23" viewBox="0 0 23 23" fill="none" xmlns="http://www.w3.org/2000/svg">
<path fill-rule="evenodd" clip-rule="evenodd" d="M16.535 7.09209C16.535 9.95035 14.2818 12.2674 11.5025 12.2674C8.72308 12.2674 6.46995 9.95035 6.46995 7.09209C6.46995 4.23383 8.72308 1.91675 11.5025 1.91675C14.2818 1.91675 16.535 4.23383 16.535 7.09209ZM15.822 15.1834C17.4221 15.5073 18.4667 16.036 18.9144 16.8886C19.2507 17.554 19.2507 18.3462 18.9144 19.0116C18.4667 19.8642 17.4635 20.4269 15.8054 20.7168C15.0665 20.8658 14.3186 20.9626 13.5669 21.0067C12.8704 21.0834 12.174 21.0834 11.4693 21.0834H10.2008C9.9355 21.0493 9.67848 21.0323 9.42976 21.0323C8.67801 20.9936 7.92992 20.8996 7.19125 20.7509C5.59113 20.444 4.54649 19.8983 4.09879 19.0457C3.92596 18.7154 3.83484 18.3465 3.83348 17.9714C3.82988 17.594 3.91824 17.2218 4.09049 16.8886C4.52991 16.036 5.57454 15.4818 7.19125 15.1834C7.93318 15.0377 8.68382 14.9437 9.43805 14.902C10.8177 14.7908 12.2038 14.7908 13.5834 14.902C14.3348 14.9458 15.0825 15.0398 15.822 15.1834Z" fill="#2C3550"/>
</svg>
